<svg xmlns="http://www.w3.org/2000/svg" viewBox="0 0 400 300" width="400" height="300" role="img" aria-label="Gaming mouse illustration">
  <defs>
    <linearGradient id="mbg" x1="0" y1="0" x2="1" y2="1">
      <stop offset="0%" stop-color="#1b2233"/>
      <stop offset="100%" stop-color="#0d1220"/>
    </linearGradient>
    <linearGradient id="mshell" x1="0" y1="0" x2="1" y2="1">
      <stop offset="0%" stop-color="#46556c"/>
      <stop offset="100%" stop-color="#18212f"/>
    </linearGradient>
  </defs>
  <rect width="400" height="300" fill="url(#mbg)"/>
  <ellipse cx="200" cy="160" rx="118" ry="96" fill="#22d3ee" opacity="0.08"/>
  <g transform="translate(200 150)">
    <path d="M0 -104 C42 -104 66 -66 66 -18 L66 34 C66 82 38 108 0 108 C-38 108 -66 82 -66 34 L-66 -18 C-66 -66 -42 -104 0 -104 Z" fill="url(#mshell)" stroke="#0b0f1a" stroke-width="3"/>
    <path d="M0 -104 C-42 -104 -66 -66 -66 -18 L-66 -6 L-4 -6 L-4 -104 Z" fill="#0f172a" opacity="0.45"/>
    <path d="M0 -104 C42 -104 66 -66 66 -18 L66 -6 L4 -6 L4 -104 Z" fill="#0f172a" opacity="0.3"/>
    <rect x="-6" y="-72" width="12" height="34" rx="6" fill="#22d3ee"/>
    <rect x="-30" y="24" width="60" height="8" rx="4" fill="#a855f7" opacity="0.75"/>
    <rect x="-22" y="44" width="44" height="6" rx="3" fill="#22d3ee" opacity="0.45"/>
    <circle cx="0" cy="74" r="14" fill="none" stroke="#22d3ee" stroke-width="3" opacity="0.55"/>
  </g>
</svg>
