<svg xmlns="http://www.w3.org/2000/svg" viewBox="0 0 64 64" width="64" height="64">
  <defs>
    <linearGradient id="pad" x1="0" y1="0" x2="1" y2="1">
      <stop offset="0" stop-color="#22d3ee"/>
      <stop offset="1" stop-color="#a855f7"/>
    </linearGradient>
  </defs>
  <rect width="64" height="64" rx="14" fill="#0b0f1a"/>
  <!-- Gamepad body: two grips joined by a waisted center. -->
  <path fill="url(#pad)" d="M21.5 18h21c5.6 0 10.2 4 11.2 9.5l3 16.4c.9 5-2.9 9.6-8 9.6-2.6 0-5-1.3-6.5-3.4l-3.3-4.7a5 5 0 0 0-4.1-2.1h-5.6a5 5 0 0 0-4.1 2.1l-3.3 4.7A8 8 0 0 1 15.3 53.5c-5.1 0-8.9-4.6-8-9.6l3-16.4C11.3 22 15.9 18 21.5 18Z"/>
  <!-- D-pad -->
  <path fill="#0b0f1a" d="M20 27.5h5v5h5v5h-5v5h-5v-5h-5v-5h5z"/>
  <!-- Action buttons -->
  <circle cx="45" cy="29.5" r="3.4" fill="#0b0f1a"/>
  <circle cx="51.5" cy="36" r="3.4" fill="#0b0f1a"/>
  <circle cx="38.5" cy="36" r="3.4" fill="#0b0f1a"/>
  <circle cx="45" cy="42.5" r="3.4" fill="#0b0f1a"/>
</svg>
